<svg id="visual" viewBox="0 0 960 540" width="960" height="540" xmlns="http://www.w3.org/2000/svg" xmlns:xlink="http://www.w3.org/1999/xlink" version="1.1"><path d="M0 60L20 61C40 62 80 64 120 59.5C160 55 200 44 240 47.5C280 51 320 69 360 79C400 89 440 91 480 83C520 75 560 57 600 57.8C640 58.7 680 78.3 720 89.2C760 100 800 102 840 98.5C880 95 920 86 940 81.5L960 77L960 0L940 0C920 0 880 0 840 0C800 0 760 0 720 0C680 0 640 0 600 0C560 0 520 0 480 0C440 0 400 0 360 0C320 0 280 0 240 0C200 0 160 0 120 0C80 0 40 0 20 0L0 0Z" fill="#6198ff"></path><path d="M0 98L20 107C40 116 80 134 120 139.5C160 145 200 138 240 139C280 140 320 149 360 156.2C400 163.3 440 168.7 480 158.7C520 148.7 560 123.3 600 119.7C640 116 680 134 720 145.7C760 157.3 800 162.7 840 168.2C880 173.7 920 179.3 940 182.2L960 185L960 75L940 79.5C920 84 880 93 840 96.5C800 100 760 98 720 87.2C680 76.3 640 56.7 600 55.8C560 55 520 73 480 81C440 89 400 87 360 77C320 67 280 49 240 45.5C200 42 160 53 120 57.5C80 62 40 60 20 59L0 58Z" fill="#3c80ff"></path><path d="M0 379L20 379C40 379 80 379 120 361.8C160 344.7 200 310.3 240 305.8C280 301.3 320 326.7 360 332.2C400 337.7 440 323.3 480 304.5C520 285.7 560 262.3 600 259.7C640 257 680 275 720 275.8C760 276.7 800 260.3 840 265.7C880 271 920 298 940 311.5L960 325L960 183L940 180.2C920 177.3 880 171.7 840 166.2C800 160.7 760 155.3 720 143.7C680 132 640 114 600 117.7C560 121.3 520 146.7 480 156.7C440 166.7 400 161.3 360 154.2C320 147 280 138 240 137C200 136 160 143 120 137.5C80 132 40 114 20 105L0 96Z" fill="#0066ff"></path><path d="M0 471L20 473.7C40 476.3 80 481.7 120 480.7C160 479.7 200 472.3 240 475C280 477.7 320 490.3 360 489.5C400 488.7 440 474.3 480 454.5C520 434.7 560 409.3 600 404.8C640 400.3 680 416.7 720 422.2C760 427.7 800 422.3 840 418.7C880 415 920 413 940 412L960 411L960 323L940 309.5C920 296 880 269 840 263.7C800 258.3 760 274.7 720 273.8C680 273 640 255 600 257.7C560 260.3 520 283.7 480 302.5C440 321.3 400 335.7 360 330.2C320 324.7 280 299.3 240 303.8C200 308.3 160 342.7 120 359.8C80 377 40 377 20 377L0 377Z" fill="#0059dd"></path><path d="M0 541L20 541C40 541 80 541 120 541C160 541 200 541 240 541C280 541 320 541 360 541C400 541 440 541 480 541C520 541 560 541 600 541C640 541 680 541 720 541C760 541 800 541 840 541C880 541 920 541 940 541L960 541L960 409L940 410C920 411 880 413 840 416.7C800 420.3 760 425.7 720 420.2C680 414.7 640 398.3 600 402.8C560 407.3 520 432.7 480 452.5C440 472.3 400 486.7 360 487.5C320 488.3 280 475.7 240 473C200 470.3 160 477.7 120 478.7C80 479.7 40 474.3 20 471.7L0 469Z" fill="#004cbb"></path></svg>